<?xml version="1.0" encoding="utf-8"?>
<!-- Generator: Adobe Illustrator 17.0.0, SVG Export Plug-In . SVG Version: 6.00 Build 0)  -->
<!DOCTYPE svg PUBLIC "-//W3C//DTD SVG 1.1//EN" "http://www.w3.org/Graphics/SVG/1.1/DTD/svg11.dtd">
<svg version="1.1"   xmlns="http://www.w3.org/2000/svg" xmlns:xlink="http://www.w3.org/1999/xlink">


 <symbol id="icon-chevronDown" viewBox="0 0 8 5">
	<path fill-rule="evenodd" 
 	d="M0.080,0.911 L3.816,4.913 C3.869,4.970 3.930,4.999 4.000,4.999 C4.069,4.999 4.131,4.970 4.184,4.913 L7.920,0.911 C7.973,0.854 8.000,0.788 8.000,0.713 C8.000,0.639 7.973,0.573 7.920,0.516 L7.519,0.087 C7.465,0.030 7.404,0.001 7.334,0.001 C7.265,0.001 7.204,0.030 7.150,0.087 L4.000,3.461 L0.850,0.087 C0.796,0.030 0.735,0.001 0.665,0.001 C0.596,0.001 0.534,0.030 0.481,0.087 L0.080,0.516 C0.027,0.573 0.000,0.639 0.000,0.713 C0.000,0.788 0.027,0.854 0.080,0.911 Z"/>
</symbol>


<symbol id="icon-fechar" viewBox="0 0 1792 1792" >
	<path d="M1490 1322q0 40-28 68l-136 136q-28 28-68 28t-68-28l-294-294-294 294q-28 28-68 28t-68-28l-136-136q-28-28-28-68t28-68l294-294-294-294q-28-28-28-68t28-68l136-136q28-28 68-28t68 28l294 294 294-294q28-28 68-28t68 28l136 136q28 28 28 68t-28 68l-294 294 294 294q28 28 28 68z"/>
</symbol>

<symbol id="icon-menu" viewBox="0 0 1792 1792">
	<path d="M1664 1344v128q0 26-19 45t-45 19h-1408q-26 0-45-19t-19-45v-128q0-26 19-45t45-19h1408q26 0 45 19t19 45zm0-512v128q0 26-19 45t-45 19h-1408q-26 0-45-19t-19-45v-128q0-26 19-45t45-19h1408q26 0 45 19t19 45zm0-512v128q0 26-19 45t-45 19h-1408q-26 0-45-19t-19-45v-128q0-26 19-45t45-19h1408q26 0 45 19t19 45z"/>
</symbol>



<symbol id="icon-whatsapp" viewBox="0 0 1792 1792">
	<path d="M1113 974q13 0 97.5 44t89.5 53q2 5 2 15 0 33-17 76-16 39-71 65.5t-102 26.5q-57 0-190-62-98-45-170-118t-148-185q-72-107-71-194v-8q3-91 74-158 24-22 52-22 6 0 18 1.5t19 1.5q19 0 26.5 6.5t15.5 27.5q8 20 33 88t25 75q0 21-34.5 57.5t-34.5 46.5q0 7 5 15 34 73 102 137 56 53 151 101 12 7 22 7 15 0 54-48.5t52-48.5zm-203 530q127 0 243.5-50t200.5-134 134-200.5 50-243.5-50-243.5-134-200.5-200.5-134-243.5-50-243.5 50-200.5 134-134 200.5-50 243.5q0 203 120 368l-79 233 242-77q158 104 345 104zm0-1382q153 0 292.5 60t240.5 161 161 240.5 60 292.5-60 292.5-161 240.5-240.5 161-292.5 60q-195 0-365-94l-417 134 136-405q-108-178-108-389 0-153 60-292.5t161-240.5 240.5-161 292.5-60z"/>
</symbol>

<symbol id="icon-gplus" viewBox="0 0 2304 1792">
	<path d="M1437 913q0 208-87 370.5t-248 254-369 91.5q-149 0-285-58t-234-156-156-234-58-285 58-285 156-234 234-156 285-58q286 0 491 192l-199 191q-117-113-292-113-123 0-227.5 62t-165.5 168.5-61 232.5 61 232.5 165.5 168.5 227.5 62q83 0 152.5-23t114.5-57.5 78.5-78.5 49-83 21.5-74h-416v-252h692q12 63 12 122zm867-122v210h-209v209h-210v-209h-209v-210h209v-209h210v209h209z"/>
</symbol>

	 



<symbol id="icon-facebook" viewBox="0 0 1792 1792">
	<path d="M1343 12v264h-157q-86 0-116 36t-30 108v189h293l-39 296h-254v759h-306v-759h-255v-296h255v-218q0-186 104-288.5t277-102.5q147 0 228 12z"/>
</symbol>


<symbol id="icon-twitter" viewBox="0 0 1792 1792">
	<path d="M1684 408q-67 98-162 167 1 14 1 42 0 130-38 259.5t-115.5 248.5-184.5 210.5-258 146-323 54.5q-271 0-496-145 35 4 78 4 225 0 401-138-105-2-188-64.5t-114-159.5q33 5 61 5 43 0 85-11-112-23-185.5-111.5t-73.5-205.5v-4q68 38 146 41-66-44-105-115t-39-154q0-88 44-163 121 149 294.5 238.5t371.5 99.5q-8-38-8-74 0-134 94.5-228.5t228.5-94.5q140 0 236 102 109-21 205-78-37 115-142 178 93-10 186-50z"/>
</symbol>


<symbol id="icon-youtube" viewBox="0 0 1792 1792">
	<path d="M711 1128l484-250-484-253v503zm185-862q168 0 324.5 4.5t229.5 9.5l73 4q1 0 17 1.5t23 3 23.5 4.5 28.5 8 28 13 31 19.5 29 26.5q6 6 15.5 18.5t29 58.5 26.5 101q8 64 12.5 136.5t5.5 113.5v176q1 145-18 290-7 55-25 99.5t-32 61.5l-14 17q-14 15-29 26.5t-31 19-28 12.5-28.5 8-24 4.5-23 3-16.5 1.5q-251 19-627 19-207-2-359.5-6.5t-200.5-7.5l-49-4-36-4q-36-5-54.5-10t-51-21-56.5-41q-6-6-15.5-18.5t-29-58.5-26.5-101q-8-64-12.5-136.5t-5.5-113.5v-176q-1-145 18-290 7-55 25-99.5t32-61.5l14-17q14-15 29-26.5t31-19.5 28-13 28.5-8 23.5-4.5 23-3 17-1.5q251-18 627-18z"/>
</symbol>

<symbol id="icon-instagram" viewBox="0 0 1792 1792">
	<path d="M1152 896q0-106-75-181t-181-75-181 75-75 181 75 181 181 75 181-75 75-181zm138 0q0 164-115 279t-279 115-279-115-115-279 115-279 279-115 279 115 115 279zm108-410q0 38-27 65t-65 27-65-27-27-65 27-65 65-27 65 27 27 65zm-502-220q-7 0-76.5-.5t-105.5 0-96.5 3-103 10-71.5 18.5q-50 20-88 58t-58 88q-11 29-18.5 71.5t-10 103-3 96.5 0 105.5.5 76.5-.5 76.5 0 105.5 3 96.5 10 103 18.5 71.5q20 50 58 88t88 58q29 11 71.5 18.5t103 10 96.5 3 105.5 0 76.5-.5 76.5.5 105.5 0 96.5-3 103-10 71.5-18.5q50-20 88-58t58-88q11-29 18.5-71.5t10-103 3-96.5 0-105.5-.5-76.5.5-76.5 0-105.5-3-96.5-10-103-18.5-71.5q-20-50-58-88t-88-58q-29-11-71.5-18.5t-103-10-96.5-3-105.5 0-76.5.5zm768 630q0 229-5 317-10 208-124 322t-322 124q-88 5-317 5t-317-5q-208-10-322-124t-124-322q-5-88-5-317t5-317q10-208 124-322t322-124q88-5 317-5t317 5q208 10 322 124t124 322q5 88 5 317z"/>
</symbol>


<symbol id="icon-linkedin" viewBox="0 0 1792 1792">
	<path d="M477 625v991h-330v-991h330zm21-306q1 73-50.5 122t-135.5 49h-2q-82 0-132-49t-50-122q0-74 51.5-122.5t134.5-48.5 133 48.5 51 122.5zm1166 729v568h-329v-530q0-105-40.5-164.5t-126.5-59.5q-63 0-105.5 34.5t-63.5 85.5q-11 30-11 81v553h-329q2-399 2-647t-1-296l-1-48h329v144h-2q20-32 41-56t56.5-52 87-43.5 114.5-15.5q171 0 275 113.5t104 332.5z"/>
</symbol>
<symbol id="icon-pinterest" viewBox="0 0 1792 1792">
	<path d="M256 597q0-108 37.5-203.5t103.5-166.5 152-123 185-78 202-26q158 0 294 66.5t221 193.5 85 287q0 96-19 188t-60 177-100 149.5-145 103-189 38.5q-68 0-135-32t-96-88q-10 39-28 112.5t-23.5 95-20.5 71-26 71-32 62.5-46 77.5-62 86.5l-14 5-9-10q-15-157-15-188 0-92 21.5-206.5t66.5-287.5 52-203q-32-65-32-169 0-83 52-156t132-73q61 0 95 40.5t34 102.5q0 66-44 191t-44 187q0 63 45 104.5t109 41.5q55 0 102-25t78.5-68 56-95 38-110.5 20-111 6.5-99.5q0-173-109.5-269.5t-285.5-96.5q-200 0-334 129.5t-134 328.5q0 44 12.5 85t27 65 27 45.5 12.5 30.5q0 28-15 73t-37 45q-2 0-17-3-51-15-90.5-56t-61-94.5-32.5-108-11-106.5z"/>
</symbol>






 

</svg>